<?xml version="1.0" encoding="utf-8"?>
<!-- Generator: Adobe Illustrator 22.1.0, SVG Export Plug-In . SVG Version: 6.00 Build 0)  -->
<svg version="1.1" id="Layer_1" xmlns="http://www.w3.org/2000/svg" xmlns:xlink="http://www.w3.org/1999/xlink" x="0px" y="0px"
	 viewBox="0 0 1000 370" style="enable-background:new 0 0 1000 370;" xml:space="preserve">
<style type="text/css">
	.st0{fill:none;}
	.st1{fill:#FFB25A;}
	.st2{fill:#FFB040;}
	.st3{fill:#FFC375;}
	.st4{fill:#FFBF74;}
	.st5{fill:#E67B53;}
	.st6{fill:#E38150;}
	.st7{fill:#FFBD71;}
	.st8{fill:#FFB977;}
	.st9{fill:#DF7650;}
	.st10{fill:#E79244;}
	.st11{fill:#FFBC78;}
	.st12{fill:#FFC47C;}
	.st13{fill:#B4343F;}
	.st14{fill:#EF9E42;}
	.st15{fill:#F5A94E;}
	.st16{fill:#FFC87C;}
	.st17{fill:#B93B44;}
	.st18{fill:#FAAE4C;}
	.st19{fill:#EE8E3E;}
	.st20{fill:#E78052;}
	.st21{fill:#FFBA63;}
	.st22{fill:#E97E55;}
	.st23{fill:#FFC879;}
	.st24{fill:#CA5F4B;}
	.st25{fill:#FFB049;}
	.st26{fill:#F8A93F;}
	.st27{fill:#FAD17E;}
	.st28{fill:#FFD080;}
	.st29{fill:#CF5B4D;}
	.st30{fill:#B94046;}
	.st31{fill:#FBA168;}
	.st32{fill:#F18C5A;}
	.st33{fill:#FFC16C;}
	.st34{fill:#F18B5A;}
	.st35{fill:#FFB765;}
	.st36{fill:#C94449;}
	.st37{fill:#F38B3F;}
	.st38{fill:#F8975F;}
	.st39{fill:#FFBD6E;}
	.st40{fill:#D6534F;}
	.st41{fill:#F9974A;}
	.st42{fill:#FFA46B;}
	.st43{fill:#FFC172;}
	.st44{fill:#E46E54;}
	.st45{fill:#FFAC5B;}
	.st46{fill:#D0604D;}
	.st47{fill:#FFB461;}
	.st48{fill:#F0D07C;}
	.st49{fill:#DE784D;}
	.st50{fill:#FFB574;}
	.st51{fill:url(#SVGID_1_);}
	.st52{fill:url(#SVGID_2_);}
	.st53{fill:url(#SVGID_3_);}
	.st54{fill:url(#SVGID_4_);}
	.st55{fill:url(#SVGID_5_);}
	.st56{fill:url(#SVGID_6_);}
	.st57{fill:url(#SVGID_7_);}
	.st58{fill:url(#SVGID_8_);}
	.st59{fill:url(#SVGID_9_);}
	.st60{fill:url(#SVGID_10_);}
	.st61{fill:url(#SVGID_11_);}
	.st62{fill:url(#SVGID_12_);}
	.st63{fill:url(#SVGID_13_);}
	.st64{fill:url(#SVGID_14_);}
	.st65{fill:url(#SVGID_15_);}
	.st66{fill:url(#SVGID_16_);}
	.st67{fill:url(#SVGID_17_);}
	.st68{fill:url(#SVGID_18_);}
	.st69{fill:url(#SVGID_19_);}
	.st70{fill:url(#SVGID_20_);}
	.st71{fill:url(#SVGID_21_);}
	.st72{fill:url(#SVGID_22_);}
	.st73{fill:url(#SVGID_23_);}
	.st74{enable-background:new    ;}
</style>
<g id="Logo_1">
	<g id="Structure_1_">
	</g>
	<g id="Type">
	</g>
</g>
<g id="Logo_2">
	<g id="Type_1_">
		<g id="A">
		</g>
	</g>
	<g id="Polygons">
		<g id="External_Polygon">
		</g>
		<g id="Internal_Polygon">
		</g>
	</g>
</g>
<g id="Logo_3">
	<g id="Logo_1_">
		<line class="st0" x1="175.1" y1="37.5" x2="175.1" y2="37.4"/>
		<polygon class="st0" points="177.5,36.6 175.1,50.2 175.1,51 177.6,36.8 177.6,36.8 204.1,27.1 204,27 177.5,36.6 		"/>
		<polygon class="st0" points="175.1,177.5 175.1,177.6 222.4,160.3 222.4,160.2 		"/>
		<polygon class="st0" points="266.4,290.6 266.4,289.6 259.8,327.3 		"/>
		<polygon class="st0" points="266.4,284.1 215.9,302.5 266.4,284.2 		"/>
		<polygon class="st0" points="177.5,36.6 177.4,36.5 175.1,37.4 175.1,37.5 		"/>
		<polygon class="st0" points="222.5,160.2 222.5,160.2 266.4,144.2 266.4,144.1 		"/>
		<polygon class="st0" points="138,260.9 138,260.9 138,260.9 129.8,307.4 138,260.9 138,260.9 138,260.9 138,260.9 106.4,234.4 
			137.9,260.9 		"/>
		<polygon class="st0" points="79.8,212.2 75.1,213.9 75.1,213.9 		"/>
		<polygon class="st0" points="75.1,365.4 100.6,369.9 100.6,369.9 		"/>
		<polygon class="st0" points="124.8,335.6 124.8,335.6 75.1,353.7 75.1,353.8 		"/>
		<polygon class="st0" points="151.4,186.3 151.4,186.3 151.4,186.3 151.4,186.3 151.4,186.3 154.1,185.3 154.1,185.1 151.2,186.2 
			140.1,249.4 		"/>
		<polygon class="st0" points="287.4,276.7 311.1,268 311,268 287.4,276.5 		"/>
		<polygon class="st0" points="53.6,361.6 53.6,361.6 53.6,361.6 		"/>
		<polygon class="st0" points="53.6,361.7 53.6,361.6 30.9,369.9 31.2,369.9 		"/>
		<polygon class="st0" points="53.9,361.6 53.9,361.6 54.1,361.7 54.1,361.7 		"/>
		<polygon class="st0" points="54.1,361.4 53.7,361.6 53.7,361.6 		"/>
		<polygon class="st0" points="53.6,361.6 -0.1,352.1 -0.1,352.1 		"/>
		<polygon class="st0" points="53.8,361.6 53.7,361.6 53.7,361.6 		"/>
		<polygon class="st0" points="3.5,267.9 3.4,267.9 1,281.6 		"/>
		<polygon class="st1" points="53.6,361.5 -0.1,316.5 -0.1,352.1 53.6,361.6 		"/>
		<path class="st1" d="M53.6,361.6L53.6,361.6L53.6,361.6z"/>
		<polygon class="st2" points="3.4,267.9 -0.1,271.2 -0.1,288.3 1,281.6 		"/>
		<polygon class="st3" points="223.1,369.9 266.4,369.9 266.4,368.8 254.2,358.6 		"/>
		<polygon class="st4" points="195.3,369.9 223.1,369.9 254.2,358.6 254.2,358.6 254.2,358.5 259.8,327.3 266.4,289.6 266.4,285 		
			"/>
		<path class="st5" d="M222.4,160.2L222.4,160.2L222.4,160.2z"/>
		<polygon class="st5" points="222.4,160.2 175.1,120.5 175.1,151.8 		"/>
		<polygon class="st5" points="154.1,148.1 154.1,115.1 131.2,123.4 115,141.2 		"/>
		<polygon class="st6" points="175.1,39.4 175.1,50.2 177.5,36.6 177.5,36.6 		"/>
		<polygon class="st6" points="154.1,98.4 131.2,123.4 154.1,115.1 		"/>
		<polygon class="st7" points="196.2,309.7 196.2,309.7 196.2,309.7 185.6,369.9 195.3,369.9 266.4,285 266.4,284.2 215.9,302.5 		
			"/>
		<polygon class="st8" points="196.2,309.7 175.1,292 175.1,362.6 177.7,369.9 185.6,369.9 196.2,309.7 		"/>
		<polygon class="st8" points="154.1,274.4 138.1,261 154.1,305 		"/>
		<polygon class="st9" points="177.5,36.6 175.1,37.5 175.1,39.4 		"/>
		<polygon class="st9" points="177.5,36.6 175.1,39.4 175.1,39.4 		"/>
		<polygon class="st10" points="222.5,160.2 222.6,160.2 222.7,160.2 222.7,160.2 266.4,168 266.4,144.2 		"/>
		<polygon class="st11" points="175.1,369.9 177.7,369.9 175.1,362.6 		"/>
		<polygon class="st11" points="138.1,261 138,260.9 129.8,307.4 124.9,335.4 125.1,335.5 124.9,335.6 124.9,335.6 154.1,360.2 
			154.1,305 		"/>
		<polygon class="st11" points="177.7,369.9 177.7,369.9 175.1,362.6 175.1,362.6 		"/>
		<polygon class="st11" points="154.1,305 154.1,305 138.1,261 138.1,261 		"/>
		<polygon class="st12" points="154.1,360.2 124.9,335.6 124.9,335.7 124.8,335.6 75.1,353.8 75.1,365.4 100.6,369.9 154.1,369.9 		
			"/>
		<polygon class="st12" points="53.9,361.6 53.9,361.6 54.1,361.7 54.1,361.4 53.7,361.6 53.7,361.6 53.8,361.6 		"/>
		<polygon class="st13" points="177.6,36.4 193.7,17.3 182.7,6.9 177.5,36.3 		"/>
		<polygon class="st13" points="177.6,36.5 177.5,36.5 177.5,36.6 		"/>
		<path class="st14" d="M222.6,160.2h-0.1H222.6z"/>
		<polygon class="st14" points="222.7,160.3 266.4,197.1 266.4,168 222.7,160.2 		"/>
		<polygon class="st15" points="287.4,246.5 287.4,260 293.8,252.3 		"/>
		<polygon class="st16" points="75.1,369.9 100.6,369.9 75.1,365.4 		"/>
		<polygon class="st16" points="53.7,361.6 53.8,361.6 53.8,361.6 		"/>
		<polygon class="st16" points="54.1,361.7 53.9,361.6 53.9,361.7 54.1,361.9 		"/>
		<polygon class="st17" points="177.7,36.4 177.6,36.5 177.5,36.6 177.5,36.6 204,27 193.7,17.3 177.6,36.4 		"/>
		<polygon class="st17" points="177.5,36.6 177.5,36.6 177.6,36.5 177.6,36.5 		"/>
		<polygon class="st17" points="177.6,36.4 193.7,17.3 193.7,17.3 		"/>
		<polygon class="st18" points="311,268 293.8,252.3 287.4,260 287.4,276.5 		"/>
		<polygon class="st19" points="79.9,212 79.9,212.1 87,171.8 75.1,184.8 75.1,213.9 79.8,212.2 		"/>
		<polygon class="st20" points="80.1,212.1 80.1,212.2 106.4,234.4 138,260.9 138,260.8 100.3,157.2 87,171.8 79.9,212.1 80,212.1 
					"/>
		<line class="st0" x1="87" y1="171.8" x2="87" y2="171.8"/>
		<polygon class="st20" points="87,171.8 87,171.8 79.9,212.1 79.9,212.1 		"/>
		<polygon class="st21" points="30.9,369.9 53.6,361.6 53.6,361.6 53.6,361.6 53.6,361.6 53.6,361.6 -0.1,352.1 -0.1,369.9 		"/>
		<polygon class="st20" points="138,260.8 140.1,249.4 151.2,186.2 107.5,149.4 100.3,157.2 		"/>
		<polygon class="st22" points="222.4,160.2 222.4,160.2 222.4,160.2 222.4,160.2 222.4,160.2 175.1,151.8 175.1,177.5 		"/>
		<polygon class="st22" points="151.2,186.2 154.1,185.1 154.1,148.1 115,141.2 107.5,149.4 		"/>
		<polygon class="st23" points="53.7,361.6 53.7,361.6 53.6,361.6 53.6,361.7 		"/>
		<polygon class="st23" points="53.6,361.6 53.6,361.6 53.7,361.6 		"/>
		<path class="st23" d="M53.7,361.6L53.7,361.6L53.7,361.6z"/>
		<polygon class="st23" points="53.7,361.6 53.6,361.6 53.6,361.6 53.7,361.6 		"/>
		<polygon class="st23" points="54.1,362 53.9,361.8 52.4,369.9 54.1,369.9 		"/>
		<polygon class="st23" points="53.6,361.6 53.6,361.6 53.6,361.6 53.6,361.6 53.7,361.6 		"/>
		<path class="st23" d="M53.7,361.6L53.7,361.6L53.7,361.6z"/>
		<polygon class="st23" points="53.7,361.6 53.7,361.6 53.7,361.6 53.8,361.6 		"/>
		<polygon class="st23" points="54.1,361.9 53.9,361.7 53.9,361.8 54.1,362 		"/>
		<polygon class="st23" points="53.6,361.6 53.6,361.6 53.7,361.6 		"/>
		<polygon class="st24" points="177.5,36.6 177.5,36.6 177.5,36.6 177.5,36.6 177.5,36.6 177.5,36.6 		"/>
		<polygon class="st24" points="175.1,34.3 177.5,36.3 182.7,6.9 175.1,-0.3 		"/>
		<polygon class="st24" points="177.5,36.6 177.5,36.6 177.5,36.5 177.4,36.5 		"/>
		<path class="st24" d="M177.5,36.6L177.5,36.6L177.5,36.6z"/>
		<path class="st24" d="M177.5,36.6L177.5,36.6L177.5,36.6z"/>
		<path class="st24" d="M177.5,36.6L177.5,36.6L177.5,36.6z"/>
		<polygon class="st24" points="177.5,36.6 177.5,36.5 177.5,36.5 		"/>
		<path class="st24" d="M177.5,36.6L177.5,36.6L177.5,36.6z"/>
		<polygon class="st24" points="177.5,36.3 182.7,6.9 182.7,6.9 		"/>
		<path class="st24" d="M177.5,36.6L177.5,36.6L177.5,36.6z"/>
		<path class="st24" d="M177.5,36.6L177.5,36.6L177.5,36.6z"/>
		<polygon class="st24" points="177.5,36.6 177.5,36.6 177.5,36.6 177.5,36.6 		"/>
		<polygon class="st25" points="266.4,282.6 266.4,214.2 209.4,234.9 		"/>
		<polygon class="st26" points="266.4,214.1 266.4,197.2 222.7,160.4 209.4,234.9 		"/>
		<polygon class="st26" points="222.4,160.2 222.5,160.2 222.5,160.2 		"/>
		<polygon class="st26" points="222.4,160.3 222.5,160.2 222.4,160.2 222.4,160.2 		"/>
		<polygon class="st26" points="222.4,160.2 222.4,160.2 222.4,160.2 222.4,160.2 222.4,160.2 222.4,160.2 		"/>
		<polygon class="st26" points="222.5,160.2 222.5,160.2 222.4,160.2 		"/>
		<polygon class="st26" points="222.5,160.2 222.6,160.2 222.5,160.2 222.4,160.2 		"/>
		<polygon class="st26" points="222.7,160.4 266.4,197.2 266.4,197.1 222.7,160.3 		"/>
		<path class="st26" d="M222.4,160.2L222.4,160.2L222.4,160.2z"/>
		<polygon class="st26" points="209.4,234.9 209.4,234.9 209.4,234.9 209.4,234.9 266.4,214.2 266.4,214.1 209.4,234.9 		"/>
		<polygon class="st27" points="341.7,346 341.7,326.7 325.6,332.6 		"/>
		<polygon class="st28" points="341.7,326.7 341.7,295.8 333.5,288.4 325.6,332.5 		"/>
		<line class="st0" x1="341.7" y1="326.7" x2="341.7" y2="326.7"/>
		<polygon class="st28" points="325.6,332.5 325.6,332.6 325.6,332.6 325.6,332.6 325.6,332.6 325.6,332.6 341.7,326.7 341.7,326.7 
					"/>
		<polygon class="st29" points="266.4,111.1 266.4,86.1 257.4,77.5 235.7,85.4 		"/>
		<polygon class="st30" points="257.3,77.5 240,61 235.6,85.4 		"/>
		<polygon class="st30" points="235.6,85.4 235.6,85.4 235.7,85.4 235.7,85.4 235.7,85.4 257.4,77.5 257.3,77.5 		"/>
		<polygon class="st31" points="124.9,335.6 124.8,335.6 124.8,335.6 		"/>
		<polygon class="st31" points="138,260.9 75.1,283.8 75.1,293.7 124.9,335.3 129.8,307.4 		"/>
		<path class="st31" d="M138,260.9h-0.1H138z"/>
		<polygon class="st31" points="124.9,335.6 124.9,335.6 124.9,335.6 		"/>
		<polygon class="st31" points="129.8,307.4 124.9,335.3 124.9,335.4 		"/>
		<polygon class="st31" points="124.9,335.6 124.9,335.6 124.8,335.6 124.9,335.7 		"/>
		<path class="st32" d="M138,260.9L138,260.9L138,260.9z"/>
		<polygon class="st32" points="137.9,260.9 106.4,234.4 80.1,212.3 75.1,240.2 75.1,283.7 		"/>
		<polygon class="st32" points="79.9,212.1 79.8,212.2 79.8,212.2 		"/>
		<polygon class="st32" points="79.9,212.1 79.9,212 79.8,212.2 		"/>
		<polygon class="st32" points="80.1,212.2 80.1,212.3 106.4,234.4 		"/>
		<polygon class="st32" points="79.9,212.1 79.9,212.1 79.9,212.1 80,212.1 		"/>
		<path class="st32" d="M79.9,212.1L79.9,212.1L79.9,212.1z"/>
		<polygon class="st32" points="138,260.9 137.9,260.9 75.1,283.7 75.1,283.8 		"/>
		<polygon class="st33" points="53.6,361.7 31.2,369.9 52.2,369.9 		"/>
		<polygon class="st33" points="53.8,361.6 53.8,361.6 53.9,361.6 53.9,361.6 		"/>
		<path class="st33" d="M53.9,361.6h-0.1H53.9z"/>
		<polygon class="st33" points="53.8,361.6 53.8,361.6 53.9,361.7 53.9,361.6 		"/>
		<polygon class="st33" points="52.4,369.9 53.9,361.8 53.7,361.6 53.6,361.7 52.2,369.9 		"/>
		<polygon class="st33" points="53.9,361.7 53.8,361.6 53.7,361.6 53.9,361.8 		"/>
		<polygon class="st34" points="175.1,206.1 209.4,234.9 222.4,160.3 175.1,177.6 		"/>
		<polygon class="st34" points="154.1,188.5 154.1,185.3 151.4,186.3 		"/>
		<path class="st34" d="M151.4,186.3L151.4,186.3L151.4,186.3z"/>
		<path class="st34" d="M222.7,160.2L222.7,160.2L222.7,160.2z"/>
		<polygon class="st34" points="222.7,160.3 222.7,160.2 222.6,160.2 222.6,160.2 		"/>
		<polygon class="st34" points="222.4,160.3 209.4,234.9 209.4,234.9 209.4,234.9 209.4,234.9 209.4,234.9 209.4,234.9 222.7,160.4 
			222.5,160.2 		"/>
		<polygon class="st34" points="222.5,160.2 222.7,160.4 222.7,160.3 222.6,160.2 		"/>
		<path class="st34" d="M209.4,234.9L209.4,234.9L209.4,234.9z"/>
		<path class="st34" d="M209.4,234.9L209.4,234.9L209.4,234.9z"/>
		<polygon class="st35" points="325.6,332.5 333.3,288.2 311.1,268 287.4,276.7 287.4,300.5 		"/>
		<polygon class="st35" points="325.6,332.5 325.6,332.5 325.6,332.5 325.6,332.5 325.6,332.5 325.6,332.5 333.5,288.4 333.3,288.2 
					"/>
		<polygon class="st35" points="325.6,332.6 325.6,332.5 325.6,332.5 		"/>
		<path class="st35" d="M325.6,332.5L325.6,332.5L325.6,332.5z"/>
		<polygon class="st36" points="235.6,85.4 239.9,61 204.1,27.1 177.6,36.8 177.6,36.8 177.6,36.8 		"/>
		<polygon class="st36" points="235.6,85.4 235.6,85.4 235.6,85.4 235.6,85.4 235.6,85.4 235.6,85.4 240,61 239.9,61 		"/>
		<path class="st36" d="M235.6,85.4L235.6,85.4L235.6,85.4z"/>
		<path class="st36" d="M235.6,85.4L235.6,85.4L235.6,85.4z"/>
		<polygon class="st37" points="79.8,212.2 75.1,213.9 75.1,239.1 		"/>
		<polygon class="st37" points="54.1,221.8 23.1,250.1 54.1,276.1 		"/>
		<polygon class="st37" points="80,212.1 80.1,212.2 80.1,212.1 		"/>
		<polygon class="st37" points="80.1,212.3 79.9,212.1 79.8,212.2 75.1,239.1 75.1,240.2 		"/>
		<polygon class="st37" points="80,212.1 79.9,212.1 80.1,212.3 80.1,212.2 		"/>
		<polygon class="st38" points="209.3,234.9 175.1,206.2 175.1,247.4 		"/>
		<polygon class="st38" points="140.1,249.4 138.1,260.9 154.1,255 154.1,188.6 151.4,186.3 		"/>
		<path class="st38" d="M151.4,186.3L151.4,186.3L151.4,186.3z"/>
		<path class="st38" d="M138,260.9L138,260.9L138,260.9z"/>
		<polygon class="st38" points="138,260.9 138,260.8 138,260.9 		"/>
		<polygon class="st38" points="138.1,260.9 140.1,249.4 138,260.8 138,260.9 		"/>
		<polygon class="st38" points="175.1,206.2 209.3,234.9 209.4,234.9 209.4,234.9 209.3,234.9 209.4,234.9 209.4,234.9 175.1,206.1 
					"/>
		<polygon class="st38" points="151.4,186.3 151.4,186.3 154.1,188.6 154.1,188.5 		"/>
		<polygon class="st38" points="209.3,234.9 209.4,234.9 209.4,234.9 		"/>
		<polygon class="st38" points="209.4,234.9 209.4,234.9 209.4,234.9 		"/>
		<path class="st38" d="M209.4,234.9L209.4,234.9L209.4,234.9z"/>
		<polygon class="st38" points="209.4,234.9 209.4,234.9 209.4,234.9 209.4,234.9 		"/>
		<polygon class="st39" points="254.4,358.5 266.4,354.1 266.4,290.6 259.8,327.3 		"/>
		<polygon class="st39" points="325.5,332.6 287.4,300.6 287.4,346.5 		"/>
		<polygon class="st39" points="259.8,327.3 254.2,358.5 254.4,358.5 		"/>
		<polygon class="st39" points="287.4,300.6 325.5,332.6 325.5,332.6 325.5,332.6 325.5,332.5 325.6,332.5 325.6,332.5 287.4,300.5 
					"/>
		<polygon class="st39" points="325.5,332.5 325.5,332.6 325.6,332.5 		"/>
		<polygon class="st39" points="325.6,332.6 325.5,332.6 325.5,332.6 		"/>
		<path class="st39" d="M325.6,332.5L325.6,332.5L325.6,332.5z"/>
		<polygon class="st39" points="325.5,332.6 325.6,332.6 325.6,332.5 325.6,332.5 325.6,332.5 		"/>
		<polygon class="st40" points="235.6,85.4 177.6,36.8 175.1,51 175.1,107.4 		"/>
		<polygon class="st40" points="235.6,85.4 235.6,85.4 235.6,85.4 235.6,85.4 235.6,85.4 177.6,36.8 177.6,36.8 		"/>
		<path class="st40" d="M235.6,85.4L235.6,85.4L235.6,85.4z"/>
		<path class="st40" d="M235.6,85.4L235.6,85.4L235.6,85.4z"/>
		<polygon class="st40" points="235.6,85.4 235.6,85.4 235.6,85.4 		"/>
		<polygon class="st40" points="235.6,85.4 235.6,85.4 235.6,85.4 235.6,85.4 		"/>
		<polygon class="st41" points="54.1,291.4 54.1,276.2 23,250.1 3.5,267.9 1,281.6 -0.1,288.5 -0.1,311.2 		"/>
		<polygon class="st41" points="1,281.6 -0.1,288.3 -0.1,288.5 		"/>
		<polygon class="st41" points="23.1,250.1 23,250.1 54.1,276.2 54.1,276.1 		"/>
		<polygon class="st42" points="196.2,309.6 209.4,235 175.1,247.4 175.1,291.9 		"/>
		<polygon class="st42" points="138,260.9 138,260.9 138,260.9 138,260.9 138,260.9 		"/>
		<polygon class="st42" points="154.1,274.4 154.1,255 138.1,260.9 138,260.9 		"/>
		<path class="st42" d="M196.2,309.7L196.2,309.7L196.2,309.7z"/>
		<polygon class="st42" points="175.1,292 196.2,309.7 196.2,309.6 175.1,291.9 		"/>
		<polygon class="st42" points="138.1,261 154.1,274.4 154.1,274.4 138,260.9 		"/>
		<polygon class="st42" points="138,260.9 138,260.9 138.1,261 		"/>
		<path class="st42" d="M138.1,261l-0.1-0.1L138.1,261z"/>
		<path class="st42" d="M138,260.9L138,260.9L138,260.9z"/>
		<path class="st42" d="M138,260.9h0.1H138z"/>
		<path class="st42" d="M209.4,234.9L209.4,234.9L209.4,234.9z"/>
		<polygon class="st42" points="175.1,247.4 209.4,235 209.4,235 209.4,235 209.4,235 209.4,235 209.3,234.9 		"/>
		<polygon class="st42" points="138.1,260.9 154.1,255 154.1,255 		"/>
		<polygon class="st42" points="138,260.9 138,260.9 138,260.9 		"/>
		<polygon class="st42" points="138,260.9 138,260.9 138,260.9 		"/>
		<polygon class="st42" points="138,260.9 138.1,260.9 138.1,260.9 		"/>
		<path class="st42" d="M209.4,235L209.4,235L209.4,235z"/>
		<polygon class="st42" points="209.4,235 209.4,235 209.4,234.9 		"/>
		<polygon class="st42" points="209.4,234.9 209.3,234.9 209.4,235 		"/>
		<polygon class="st42" points="209.4,235 209.4,234.9 209.4,234.9 209.4,234.9 		"/>
		<polygon class="st43" points="254.4,358.5 266.4,368.6 266.4,354.1 		"/>
		<polygon class="st43" points="287.4,369.9 319,369.9 325.5,332.6 287.4,346.5 		"/>
		<polygon class="st43" points="254.2,358.6 266.4,368.8 266.4,368.6 254.4,358.5 		"/>
		<polygon class="st43" points="254.4,358.5 254.2,358.6 254.2,358.5 254.2,358.6 254.2,358.6 		"/>
		<path class="st43" d="M325.6,332.6L325.6,332.6L325.6,332.6z"/>
		<polygon class="st43" points="254.4,358.5 254.4,358.5 266.4,354.1 266.4,354.1 		"/>
		<polygon class="st43" points="325.5,332.6 325.5,332.6 325.5,332.6 325.5,332.6 287.4,346.5 287.4,346.5 325.5,332.6 		"/>
		<polygon class="st43" points="254.4,358.5 254.4,358.5 254.2,358.5 254.2,358.6 		"/>
		<path class="st43" d="M325.5,332.6L325.5,332.6L325.5,332.6z"/>
		<path class="st43" d="M325.5,332.6L325.5,332.6L325.5,332.6z"/>
		<path class="st43" d="M325.5,332.6L325.5,332.6L325.5,332.6z"/>
		<polygon class="st43" points="325.5,332.6 325.5,332.6 325.6,332.6 325.5,332.6 		"/>
		<polygon class="st44" points="235.6,85.5 175.1,107.5 175.1,120.3 222.4,160.1 		"/>
		<polygon class="st44" points="222.4,160.1 175.1,120.3 175.1,120.5 222.4,160.2 		"/>
		<path class="st44" d="M222.4,160.2L222.4,160.2L222.4,160.2z"/>
		<path class="st44" d="M235.7,85.4L235.7,85.4L235.7,85.4z"/>
		<polygon class="st44" points="235.6,85.5 235.6,85.5 235.6,85.5 235.6,85.5 235.6,85.5 235.6,85.4 175.1,107.4 175.1,107.5 		"/>
		<path class="st44" d="M235.6,85.5L235.6,85.5L235.6,85.5z"/>
		<polygon class="st44" points="235.6,85.4 235.6,85.4 235.6,85.5 		"/>
		<path class="st44" d="M235.6,85.5L235.6,85.5L235.6,85.5z"/>
		<polygon class="st44" points="235.6,85.5 235.6,85.5 235.6,85.4 235.6,85.4 		"/>
		<polygon class="st45" points="54.1,291.4 -0.1,311.2 -0.1,316.3 53.6,361.5 54.1,358.4 		"/>
		<polygon class="st45" points="53.6,361.5 -0.1,316.3 -0.1,316.5 		"/>
		<path class="st45" d="M53.6,361.6L53.6,361.6L53.6,361.6z"/>
		<polygon class="st45" points="53.6,361.6 53.6,361.6 53.6,361.6 		"/>
		<polygon class="st45" points="-0.1,311.2 -0.1,311.2 54.1,291.4 54.1,291.4 		"/>
		<line class="st0" x1="175.1" y1="37.4" x2="175.1" y2="34.6"/>
		<polygon class="st46" points="177.4,36.5 175.1,34.6 175.1,37.4 		"/>
		<polygon class="st46" points="177.6,36.5 177.6,36.4 177.5,36.3 177.5,36.5 		"/>
		<polygon class="st46" points="177.7,36.4 177.6,36.4 177.6,36.5 		"/>
		<polygon class="st46" points="177.6,36.5 177.6,36.4 177.6,36.4 		"/>
		<line class="st0" x1="175.1" y1="34.6" x2="175.1" y2="34.3"/>
		<polygon class="st46" points="177.5,36.5 177.5,36.3 175.1,34.3 175.1,34.6 177.4,36.5 		"/>
		<polygon class="st46" points="177.5,36.5 177.5,36.3 177.5,36.3 		"/>
		<polygon class="st47" points="196.2,309.6 215.9,302.5 266.4,284.1 266.4,282.9 209.4,235 		"/>
		<path class="st47" d="M196.2,309.7L196.2,309.7L196.2,309.7z"/>
		<polygon class="st47" points="215.9,302.5 196.2,309.6 196.2,309.7 		"/>
		<polygon class="st47" points="196.2,309.7 196.2,309.7 196.2,309.7 		"/>
		<polygon class="st47" points="209.4,234.9 209.4,234.9 209.4,234.9 209.4,234.9 209.4,235 266.4,282.9 266.4,282.6 		"/>
		<path class="st47" d="M209.4,234.9L209.4,234.9L209.4,234.9z"/>
		<polygon class="st47" points="209.4,234.9 209.4,234.9 209.4,234.9 		"/>
		<path class="st47" d="M209.4,234.9L209.4,234.9L209.4,234.9z"/>
		<polygon class="st47" points="209.4,234.9 209.4,234.9 209.4,234.9 209.4,234.9 		"/>
		<path class="st47" d="M209.4,234.9L209.4,234.9L209.4,234.9z"/>
		<path class="st47" d="M209.4,234.9L209.4,234.9L209.4,234.9z"/>
		<path class="st47" d="M209.4,234.9L209.4,234.9L209.4,234.9z"/>
		<polygon class="st47" points="209.4,234.9 209.4,234.9 209.4,234.9 209.4,234.9 		"/>
		<polygon class="st47" points="209.4,234.9 209.4,235 209.4,235 209.4,235 196.2,309.6 196.2,309.6 196.2,309.6 209.4,235 		"/>
		<polygon class="st47" points="196.2,309.7 196.2,309.7 196.2,309.7 196.2,309.6 196.2,309.6 		"/>
		<polygon class="st47" points="196.2,309.7 196.2,309.6 196.2,309.6 		"/>
		<polygon class="st47" points="209.4,235 209.4,234.9 209.4,234.9 		"/>
		<path class="st47" d="M209.4,234.9L209.4,234.9L209.4,234.9z"/>
		<polygon class="st47" points="209.4,234.9 209.4,234.9 209.4,234.9 209.4,234.9 		"/>
		<path class="st47" d="M209.4,235v-0.1V235z"/>
		<path class="st47" d="M209.4,235L209.4,235L209.4,235z"/>
		<polygon class="st47" points="209.4,234.9 209.4,234.9 209.4,234.9 		"/>
		<polygon class="st47" points="209.4,234.9 209.4,234.9 209.4,234.9 209.4,234.9 		"/>
		<path class="st47" d="M209.4,234.9L209.4,234.9L209.4,234.9z"/>
		<polygon class="st47" points="209.4,234.9 209.4,234.9 209.4,234.9 209.4,234.9 		"/>
		<polygon class="st47" points="209.4,234.9 209.4,234.9 209.4,234.9 209.4,235 209.4,235 		"/>
		<polygon class="st47" points="209.4,234.9 209.4,234.9 209.4,234.9 209.4,234.9 		"/>
		<path class="st47" d="M209.4,234.9L209.4,234.9L209.4,234.9z"/>
		<polygon class="st48" points="341.7,369.9 341.7,346.1 325.6,332.6 319,369.9 		"/>
		<polygon class="st48" points="325.6,332.6 325.6,332.6 325.6,332.6 325.6,332.6 325.6,332.6 341.7,346.1 341.7,346 		"/>
		<polygon class="st48" points="325.6,332.6 325.6,332.6 325.6,332.6 		"/>
		<path class="st48" d="M325.6,332.6L325.6,332.6L325.6,332.6z"/>
		<path class="st48" d="M325.6,332.5L325.6,332.5L325.6,332.5z"/>
		<polygon class="st48" points="325.6,332.5 325.6,332.5 325.6,332.6 325.6,332.6 		"/>
		<path class="st48" d="M325.6,332.6L325.6,332.6L325.6,332.6z"/>
		<path class="st48" d="M325.6,332.6L325.6,332.6L325.6,332.6z"/>
		<path class="st48" d="M325.6,332.6L325.6,332.6L325.6,332.6z"/>
		<polygon class="st48" points="325.6,332.6 325.6,332.6 325.6,332.6 325.6,332.5 		"/>
		<polygon class="st48" points="325.6,332.6 325.6,332.6 325.6,332.6 325.5,332.6 319,369.9 319,369.9 325.6,332.6 		"/>
		<path class="st48" d="M325.6,332.6L325.6,332.6L325.6,332.6z"/>
		<path class="st48" d="M325.6,332.6L325.6,332.6L325.6,332.6z"/>
		<polygon class="st48" points="325.6,332.6 325.6,332.6 325.6,332.6 325.6,332.6 		"/>
		<path class="st48" d="M325.6,332.6L325.6,332.6L325.6,332.6z"/>
		<path class="st48" d="M325.5,332.6h0.1H325.5z"/>
		<polygon class="st48" points="325.6,332.6 325.6,332.6 325.6,332.6 		"/>
		<polygon class="st48" points="325.6,332.6 325.6,332.6 325.6,332.6 325.6,332.6 		"/>
		<path class="st48" d="M325.6,332.6L325.6,332.6L325.6,332.6z"/>
		<polygon class="st48" points="325.6,332.6 325.6,332.6 325.6,332.6 325.6,332.6 		"/>
		<polygon class="st48" points="325.5,332.6 325.5,332.6 325.6,332.6 325.6,332.6 325.6,332.6 		"/>
		<polygon class="st48" points="325.5,332.6 325.6,332.6 325.6,332.6 325.6,332.6 325.6,332.6 		"/>
		<path class="st48" d="M325.6,332.6L325.6,332.6L325.6,332.6z"/>
		<polygon class="st49" points="235.7,85.5 222.4,160.1 222.5,160.2 266.4,144.1 266.4,111.3 		"/>
		<polygon class="st49" points="222.4,160.2 222.4,160.2 222.4,160.2 222.4,160.2 		"/>
		<path class="st49" d="M222.4,160.2L222.4,160.2L222.4,160.2z"/>
		<polygon class="st49" points="222.4,160.2 222.4,160.2 222.5,160.2 222.4,160.1 		"/>
		<path class="st49" d="M222.4,160.2L222.4,160.2L222.4,160.2z"/>
		<path class="st49" d="M222.4,160.2L222.4,160.2L222.4,160.2z"/>
		<polygon class="st49" points="235.7,85.4 235.7,85.5 266.4,111.3 266.4,111.1 		"/>
		<polygon class="st49" points="235.6,85.4 235.6,85.4 235.6,85.4 		"/>
		<path class="st49" d="M235.7,85.4L235.7,85.4L235.7,85.4z"/>
		<path class="st49" d="M235.6,85.4L235.6,85.4L235.6,85.4z"/>
		<polygon class="st49" points="235.6,85.4 235.6,85.4 235.6,85.4 235.6,85.4 		"/>
		<path class="st49" d="M235.6,85.4L235.6,85.4L235.6,85.4z"/>
		<path class="st49" d="M235.6,85.4L235.6,85.4L235.6,85.4z"/>
		<polygon class="st49" points="235.6,85.4 235.6,85.4 235.6,85.4 235.6,85.4 		"/>
		<polygon class="st49" points="235.6,85.4 235.6,85.5 235.6,85.5 235.6,85.5 222.4,160.1 222.4,160.2 222.4,160.1 222.4,160.1 
			235.7,85.5 		"/>
		<polygon class="st49" points="222.4,160.2 222.4,160.2 222.4,160.1 		"/>
		<polygon class="st49" points="222.4,160.2 222.4,160.2 222.4,160.1 222.4,160.1 		"/>
		<polygon class="st49" points="222.4,160.2 222.4,160.2 222.4,160.2 222.4,160.2 		"/>
		<polygon class="st49" points="235.7,85.4 235.6,85.4 235.7,85.5 235.7,85.4 		"/>
		<polygon class="st49" points="235.7,85.4 235.7,85.4 235.7,85.4 235.6,85.4 235.6,85.4 		"/>
		<path class="st49" d="M235.6,85.5L235.6,85.5L235.6,85.5z"/>
		<path class="st49" d="M235.6,85.5L235.6,85.5L235.6,85.5z"/>
		<polygon class="st49" points="235.6,85.4 235.6,85.4 235.6,85.4 		"/>
		<polygon class="st49" points="235.6,85.4 235.7,85.4 235.7,85.4 		"/>
		<path class="st49" d="M235.6,85.4L235.6,85.4L235.6,85.4z"/>
		<polygon class="st49" points="235.6,85.4 235.6,85.4 235.7,85.4 235.6,85.4 		"/>
		<polygon class="st49" points="235.6,85.4 235.6,85.4 235.6,85.5 235.6,85.5 235.6,85.5 		"/>
		<polygon class="st49" points="235.6,85.4 235.6,85.4 235.6,85.4 235.6,85.5 		"/>
		<path class="st49" d="M235.6,85.4L235.6,85.4L235.6,85.4z"/>
		<polygon class="st50" points="75.1,293.8 75.1,353.7 124.8,335.6 		"/>
		<polygon class="st50" points="53.6,361.6 53.6,361.6 53.6,361.6 		"/>
		<polygon class="st50" points="54.1,361.4 54.1,358.7 53.6,361.5 53.7,361.6 		"/>
		<polygon class="st50" points="53.6,361.6 53.6,361.6 53.6,361.5 53.6,361.6 		"/>
		<polygon class="st50" points="124.9,335.4 124.9,335.6 125.1,335.5 		"/>
		<path class="st50" d="M53.6,361.6L53.6,361.6L53.6,361.6z"/>
		<polygon class="st50" points="53.7,361.6 53.6,361.5 53.6,361.6 		"/>
		<path class="st50" d="M53.6,361.6L53.6,361.6L53.6,361.6z"/>
		<polygon class="st50" points="124.9,335.6 124.9,335.3 75.1,293.7 75.1,293.8 124.8,335.6 		"/>
		<polygon class="st50" points="124.9,335.4 124.9,335.3 124.9,335.6 124.9,335.6 		"/>
		<polygon class="st50" points="53.6,361.5 53.6,361.5 54.1,358.7 54.1,358.4 53.6,361.5 53.6,361.6 		"/>
		<polygon class="st50" points="53.6,361.6 53.6,361.5 53.6,361.5 		"/>
		<polygon class="st50" points="53.6,361.6 53.6,361.5 53.6,361.5 53.6,361.6 		"/>
		<polygon class="st50" points="53.6,361.6 53.6,361.6 53.6,361.6 		"/>
	</g>
	<g id="Type_3_">
		
			<linearGradient id="SVGID_1_" gradientUnits="userSpaceOnUse" x1="401.4" y1="179.45" x2="990.6" y2="179.45" gradientTransform="matrix(1 0 0 -1 0 372)">
			<stop  offset="0" style="stop-color:#F8975F"/>
			<stop  offset="1" style="stop-color:#C94449"/>
		</linearGradient>
		<path class="st51" d="M456.5,167.6c-6.3,0.4-11.7,2.8-16.2,7.3c-4.9,4.9-7.4,10.9-7.4,17.8c0,6.9,2.5,12.8,7.4,17.8
			c4.5,4.5,9.9,7,16.2,7.4v31.5c-15-0.4-27.8-5.9-38.5-16.6c-11-11-16.6-24.4-16.6-40c0-15.7,5.5-29.1,16.6-40.1
			c10.6-10.6,23.4-16.1,38.5-16.6V167.6z M459.7,249.3v-31.5c6.3-0.4,11.8-2.9,16.3-7.4l22.3,22.3
			C487.6,243.3,474.8,248.9,459.7,249.3z M476,174.8c-4.5-4.5-9.9-6.9-16.3-7.3V136c15.1,0.4,27.9,5.9,38.5,16.6L476,174.8z
			 M539.2,249.3h-31.5V135.9h31.5V249.3z M605.4,249.3h-36.5L552,220.9h-9.6v-31.5h20.5c3.1,0,5.7-1.1,7.8-3.3
			c2.2-2.1,3.3-4.7,3.3-7.8c0-3-1.1-5.6-3.3-7.8c-2.1-2.2-4.7-3.3-7.8-3.3h-20.5v-31.5h20.5c11.7,0,21.8,4.2,30,12.4
			c8.3,8.3,12.4,18.3,12.4,30c0,7.6-1.9,14.6-5.6,21.2c-3.6,6.3-8.6,11.4-14.8,15.2L605.4,249.3z M670,167.5
			c-6.6,0.4-12.2,3-16.7,7.8c-4.6,4.9-6.9,10.6-6.9,17.3s2.3,12.4,6.9,17.3c4.5,4.9,10.1,7.5,16.7,7.8v31.6
			c-15.3-0.4-28.3-6.1-39-17.1s-16.1-24.2-16.1-39.6c0-15.3,5.4-28.5,16.1-39.6c10.7-11,23.7-16.7,39-17.1V167.5z M712.1,232.2
			c-10.7,11-23.7,16.7-39,17.1v-31.6c6.6-0.4,12.2-3,16.7-7.8c4.6-4.9,6.9-10.6,6.9-17.3s-2.3-12.4-6.9-17.3
			c-4.5-4.8-10.1-7.4-16.7-7.8v-31.6c15.3,0.4,28.3,6.1,39,17.1s16.1,24.2,16.1,39.6C728.2,208,722.9,221.2,712.1,232.2z
			 M769.2,249.3h-31.5v-96.7l31.5,45V249.3z M857.5,249.3h-31.6v-51.6l31.6-45V249.3z M857.5,147.1l-39,55.8l-20.9,29.7L783.1,212
			l-45.4-64.9v-11.2h30.5l29.3,41.8l29.3-41.8h30.6v11.2H857.5z M956.9,249.3l-6-15.8h-40.6l12.4-31.5H939l-9.7-25.5l-3.8,9.8
			l-24.7,63H867l44.3-113.4h36.2l43.1,113.4L956.9,249.3L956.9,249.3z"/>
		
			<linearGradient id="SVGID_2_" gradientUnits="userSpaceOnUse" x1="459.7" y1="142.15" x2="498.2" y2="142.15" gradientTransform="matrix(1 0 0 -1 0 372)">
			<stop  offset="0" style="stop-color:#F8975F"/>
			<stop  offset="1" style="stop-color:#C94449"/>
		</linearGradient>
		<path class="st52" d="M459.7,217.8v31.5c15.1-0.4,27.9-5.9,38.5-16.6L476,210.4C471.5,214.9,466.1,217.4,459.7,217.8z"/>
		
			<linearGradient id="SVGID_3_" gradientUnits="userSpaceOnUse" x1="394.0524" y1="142.15" x2="996.1859" y2="142.15" gradientTransform="matrix(1 0 0 -1 0 372)">
			<stop  offset="0" style="stop-color:#F8975F"/>
			<stop  offset="1" style="stop-color:#C94449"/>
		</linearGradient>
		<path class="st53" d="M459.7,217.8v31.5c15.1-0.4,27.9-5.9,38.5-16.6L476,210.4C471.5,214.9,466.1,217.4,459.7,217.8z"/>
		
			<linearGradient id="SVGID_4_" gradientUnits="userSpaceOnUse" x1="459.7" y1="216.55" x2="498.2319" y2="216.55" gradientTransform="matrix(1 0 0 -1 0 372)">
			<stop  offset="0" style="stop-color:#F8975F"/>
			<stop  offset="1" style="stop-color:#C94449"/>
		</linearGradient>
		<path class="st54" d="M459.7,167.6c6.3,0.4,11.8,2.8,16.3,7.3l22.3-22.3c-10.6-10.6-23.5-16.1-38.5-16.6L459.7,167.6L459.7,167.6z
			"/>
		
			<linearGradient id="SVGID_5_" gradientUnits="userSpaceOnUse" x1="394.0524" y1="216.55" x2="996.1859" y2="216.55" gradientTransform="matrix(1 0 0 -1 0 372)">
			<stop  offset="0" style="stop-color:#F8975F"/>
			<stop  offset="1" style="stop-color:#C94449"/>
		</linearGradient>
		<path class="st55" d="M459.7,167.6c6.3,0.4,11.8,2.8,16.3,7.3l22.3-22.3c-10.6-10.6-23.5-16.1-38.5-16.6L459.7,167.6L459.7,167.6z
			"/>
		
			<linearGradient id="SVGID_6_" gradientUnits="userSpaceOnUse" x1="401.5" y1="179.35" x2="456.5229" y2="179.35" gradientTransform="matrix(1 0 0 -1 0 372)">
			<stop  offset="0" style="stop-color:#F8975F"/>
			<stop  offset="1" style="stop-color:#C94449"/>
		</linearGradient>
		<path class="st56" d="M401.5,192.7c0,15.6,5.5,29,16.6,40c10.6,10.6,23.4,16.1,38.5,16.6v-31.5c-6.3-0.4-11.7-2.9-16.2-7.4
			c-4.9-4.9-7.4-10.8-7.4-17.8s2.5-12.9,7.4-17.8c4.5-4.5,9.9-6.9,16.2-7.3V136c-15,0.4-27.8,5.9-38.5,16.6
			C407,163.6,401.5,177,401.5,192.7z"/>
		
			<linearGradient id="SVGID_7_" gradientUnits="userSpaceOnUse" x1="394.0524" y1="179.35" x2="996.1859" y2="179.35" gradientTransform="matrix(1 0 0 -1 0 372)">
			<stop  offset="0" style="stop-color:#F8975F"/>
			<stop  offset="1" style="stop-color:#C94449"/>
		</linearGradient>
		<path class="st57" d="M401.5,192.7c0,15.6,5.5,29,16.6,40c10.6,10.6,23.4,16.1,38.5,16.6v-31.5c-6.3-0.4-11.7-2.9-16.2-7.4
			c-4.9-4.9-7.4-10.8-7.4-17.8s2.5-12.9,7.4-17.8c4.5-4.5,9.9-6.9,16.2-7.3V136c-15,0.4-27.8,5.9-38.5,16.6
			C407,163.6,401.5,177,401.5,192.7z"/>
		
			<linearGradient id="SVGID_8_" gradientUnits="userSpaceOnUse" x1="542.4" y1="179.2" x2="605.3" y2="179.2" gradientTransform="matrix(1 0 0 -1 0 372)">
			<stop  offset="0" style="stop-color:#F8975F"/>
			<stop  offset="1" style="stop-color:#C94449"/>
		</linearGradient>
		<path class="st58" d="M599.7,199.6c3.8-6.6,5.6-13.6,5.6-21.2c0-11.7-4.2-21.8-12.4-30c-8.3-8.3-18.3-12.4-30-12.4h-20.5v31.5
			h20.5c3.1,0,5.7,1.1,7.8,3.3c2.2,2.2,3.3,4.8,3.3,7.8c0,3.1-1.1,5.7-3.3,7.8c-2.1,2.2-4.7,3.3-7.8,3.3h-20.5v31.5h9.6l16.8,28.4
			h36.5l-20.5-34.5C591.1,211,596.1,205.9,599.7,199.6z"/>
		
			<linearGradient id="SVGID_9_" gradientUnits="userSpaceOnUse" x1="394.0524" y1="179.2" x2="996.1859" y2="179.2" gradientTransform="matrix(1 0 0 -1 0 372)">
			<stop  offset="0" style="stop-color:#F8975F"/>
			<stop  offset="1" style="stop-color:#C94449"/>
		</linearGradient>
		<path class="st59" d="M599.7,199.6c3.8-6.6,5.6-13.6,5.6-21.2c0-11.7-4.2-21.8-12.4-30c-8.3-8.3-18.3-12.4-30-12.4h-20.5v31.5
			h20.5c3.1,0,5.7,1.1,7.8,3.3c2.2,2.2,3.3,4.8,3.3,7.8c0,3.1-1.1,5.7-3.3,7.8c-2.1,2.2-4.7,3.3-7.8,3.3h-20.5v31.5h9.6l16.8,28.4
			h36.5l-20.5-34.5C591.1,211,596.1,205.9,599.7,199.6z"/>
		
			<linearGradient id="SVGID_10_" gradientUnits="userSpaceOnUse" x1="507.7558" y1="179.4" x2="539.2558" y2="179.4" gradientTransform="matrix(1 0 0 -1 0 372)">
			<stop  offset="0" style="stop-color:#F8975F"/>
			<stop  offset="1" style="stop-color:#C94449"/>
		</linearGradient>
		<rect x="507.8" y="135.9" class="st60" width="31.5" height="113.4"/>
		
			<linearGradient id="SVGID_11_" gradientUnits="userSpaceOnUse" x1="394.0524" y1="179.4" x2="996.1859" y2="179.4" gradientTransform="matrix(1 0 0 -1 0 372)">
			<stop  offset="0" style="stop-color:#F8975F"/>
			<stop  offset="1" style="stop-color:#C94449"/>
		</linearGradient>
		<rect x="507.8" y="135.9" class="st61" width="31.5" height="113.4"/>
		
			<linearGradient id="SVGID_12_" gradientUnits="userSpaceOnUse" x1="614.9" y1="179.4" x2="670" y2="179.4" gradientTransform="matrix(1 0 0 -1 0 372)">
			<stop  offset="0" style="stop-color:#F8975F"/>
			<stop  offset="1" style="stop-color:#C94449"/>
		</linearGradient>
		<path class="st62" d="M614.9,192.6c0,15.4,5.4,28.6,16.1,39.6c10.7,11,23.7,16.7,39,17.1v-31.6c-6.6-0.4-12.2-3-16.7-7.8
			c-4.6-4.9-6.9-10.6-6.9-17.3s2.3-12.4,6.9-17.3c4.5-4.8,10.1-7.4,16.7-7.8v-31.6c-15.3,0.4-28.3,6.1-39,17.1
			C620.2,164.1,614.9,177.3,614.9,192.6z"/>
		
			<linearGradient id="SVGID_13_" gradientUnits="userSpaceOnUse" x1="394.0524" y1="179.4" x2="996.1859" y2="179.4" gradientTransform="matrix(1 0 0 -1 0 372)">
			<stop  offset="0" style="stop-color:#F8975F"/>
			<stop  offset="1" style="stop-color:#C94449"/>
		</linearGradient>
		<path class="st63" d="M614.9,192.6c0,15.4,5.4,28.6,16.1,39.6c10.7,11,23.7,16.7,39,17.1v-31.6c-6.6-0.4-12.2-3-16.7-7.8
			c-4.6-4.9-6.9-10.6-6.9-17.3s2.3-12.4,6.9-17.3c4.5-4.8,10.1-7.4,16.7-7.8v-31.6c-15.3,0.4-28.3,6.1-39,17.1
			C620.2,164.1,614.9,177.3,614.9,192.6z"/>
		
			<linearGradient id="SVGID_14_" gradientUnits="userSpaceOnUse" x1="673.1" y1="179.4" x2="728.2" y2="179.4" gradientTransform="matrix(1 0 0 -1 0 372)">
			<stop  offset="0" style="stop-color:#F8975F"/>
			<stop  offset="1" style="stop-color:#C94449"/>
		</linearGradient>
		<path class="st64" d="M673.1,135.9v31.6c6.6,0.4,12.2,3,16.7,7.8c4.6,4.9,6.9,10.6,6.9,17.3s-2.3,12.4-6.9,17.3
			c-4.5,4.9-10.1,7.5-16.7,7.8v31.6c15.3-0.4,28.3-6.1,39-17.1s16.1-24.2,16.1-39.6c0-15.3-5.4-28.5-16.1-39.6
			C701.4,142.1,688.4,136.3,673.1,135.9z"/>
		
			<linearGradient id="SVGID_15_" gradientUnits="userSpaceOnUse" x1="394.0524" y1="179.4" x2="996.1859" y2="179.4" gradientTransform="matrix(1 0 0 -1 0 372)">
			<stop  offset="0" style="stop-color:#F8975F"/>
			<stop  offset="1" style="stop-color:#C94449"/>
		</linearGradient>
		<path class="st65" d="M673.1,135.9v31.6c6.6,0.4,12.2,3,16.7,7.8c4.6,4.9,6.9,10.6,6.9,17.3s-2.3,12.4-6.9,17.3
			c-4.5,4.9-10.1,7.5-16.7,7.8v31.6c15.3-0.4,28.3-6.1,39-17.1s16.1-24.2,16.1-39.6c0-15.3-5.4-28.5-16.1-39.6
			C701.4,142.1,688.4,136.3,673.1,135.9z"/>
		
			<linearGradient id="SVGID_16_" gradientUnits="userSpaceOnUse" x1="825.9" y1="171.05" x2="857.455" y2="171.05" gradientTransform="matrix(1 0 0 -1 0 372)">
			<stop  offset="0" style="stop-color:#F8975F"/>
			<stop  offset="1" style="stop-color:#C94449"/>
		</linearGradient>
		<polygon class="st66" points="825.9,249.3 857.5,249.3 857.5,152.6 825.9,197.7 		"/>
		
			<linearGradient id="SVGID_17_" gradientUnits="userSpaceOnUse" x1="394.0524" y1="171.05" x2="996.1859" y2="171.05" gradientTransform="matrix(1 0 0 -1 0 372)">
			<stop  offset="0" style="stop-color:#F8975F"/>
			<stop  offset="1" style="stop-color:#C94449"/>
		</linearGradient>
		<polygon class="st67" points="825.9,249.3 857.5,249.3 857.5,152.6 825.9,197.7 		"/>
		
			<linearGradient id="SVGID_18_" gradientUnits="userSpaceOnUse" x1="737.7579" y1="171.05" x2="769.2336" y2="171.05" gradientTransform="matrix(1 0 0 -1 0 372)">
			<stop  offset="0" style="stop-color:#F8975F"/>
			<stop  offset="1" style="stop-color:#C94449"/>
		</linearGradient>
		<polygon class="st68" points="737.8,249.3 769.2,249.3 769.2,197.6 737.8,152.6 		"/>
		
			<linearGradient id="SVGID_19_" gradientUnits="userSpaceOnUse" x1="394.0524" y1="171.05" x2="996.1859" y2="171.05" gradientTransform="matrix(1 0 0 -1 0 372)">
			<stop  offset="0" style="stop-color:#F8975F"/>
			<stop  offset="1" style="stop-color:#C94449"/>
		</linearGradient>
		<polygon class="st69" points="737.8,249.3 769.2,249.3 769.2,197.6 737.8,152.6 		"/>
		
			<linearGradient id="SVGID_20_" gradientUnits="userSpaceOnUse" x1="737.8" y1="187.75" x2="857.5" y2="187.75" gradientTransform="matrix(1 0 0 -1 0 372)">
			<stop  offset="0" style="stop-color:#F8975F"/>
			<stop  offset="1" style="stop-color:#C94449"/>
		</linearGradient>
		<polygon class="st70" points="797.6,177.7 768.3,135.9 737.8,135.9 737.8,147.1 783.1,212 797.6,232.6 818.5,202.9 857.5,147.1 
			857.5,135.9 826.9,135.9 		"/>
		
			<linearGradient id="SVGID_21_" gradientUnits="userSpaceOnUse" x1="394.0524" y1="187.75" x2="996.1859" y2="187.75" gradientTransform="matrix(1 0 0 -1 0 372)">
			<stop  offset="0" style="stop-color:#F8975F"/>
			<stop  offset="1" style="stop-color:#C94449"/>
		</linearGradient>
		<polygon class="st71" points="797.6,177.7 768.3,135.9 737.8,135.9 737.8,147.1 783.1,212 797.6,232.6 818.5,202.9 857.5,147.1 
			857.5,135.9 826.9,135.9 		"/>
		
			<linearGradient id="SVGID_22_" gradientUnits="userSpaceOnUse" x1="867" y1="179.4" x2="990.6" y2="179.4" gradientTransform="matrix(1 0 0 -1 0 372)">
			<stop  offset="0" style="stop-color:#F8975F"/>
			<stop  offset="1" style="stop-color:#C94449"/>
		</linearGradient>
		<polygon class="st72" points="911.3,135.9 867,249.3 900.8,249.3 925.4,186.3 929.2,176.5 938.9,202 922.6,202 910.3,233.5 
			950.9,233.5 956.9,249.3 990.6,249.3 947.5,135.9 		"/>
		
			<linearGradient id="SVGID_23_" gradientUnits="userSpaceOnUse" x1="394.0524" y1="179.4" x2="996.1859" y2="179.4" gradientTransform="matrix(1 0 0 -1 0 372)">
			<stop  offset="0" style="stop-color:#F8975F"/>
			<stop  offset="1" style="stop-color:#C94449"/>
		</linearGradient>
		<polygon class="st73" points="911.3,135.9 867,249.3 900.8,249.3 925.4,186.3 929.2,176.5 938.9,202 922.6,202 910.3,233.5 
			950.9,233.5 956.9,249.3 990.6,249.3 947.5,135.9 		"/>
	</g>
	<g class="st74">
		<path class="st38" d="M449.3,269.6v3.8h-33.2v25.5h27.6v3.7h-27.6v26.3h33.2v3.8h-37.8v-63.1H449.3z"/>
		<path class="st38" d="M469.4,269.7c0.2,0.1,0.5,0.3,0.8,0.7l40.8,54.7c-0.1-0.9-0.1-1.8-0.1-2.6v-52.9h4v63.1h-2.2
			c-0.7,0-1.2-0.3-1.6-0.9L470,277c0.1,0.9,0.1,1.7,0.1,2.5v53.1h-4v-63.1h2.2C468.8,269.6,469.2,269.6,469.4,269.7z"/>
		<path class="st38" d="M562.7,329.7c2.2,0,4.1-0.1,5.9-0.3c1.8-0.2,3.4-0.6,5-1c1.5-0.4,3-1,4.4-1.6c1.4-0.6,2.8-1.4,4.2-2.2v-17
			H570c-0.3,0-0.6-0.1-0.8-0.3c-0.2-0.2-0.3-0.4-0.3-0.7v-2.5h17.4v22.4c-1.6,1.1-3.2,2.1-4.9,2.9c-1.7,0.9-3.5,1.6-5.4,2.2
			c-1.9,0.6-4,1-6.2,1.3c-2.2,0.3-4.7,0.5-7.3,0.5c-4.5,0-8.7-0.8-12.5-2.3c-3.8-1.5-7-3.7-9.7-6.5c-2.7-2.8-4.8-6.2-6.3-10.2
			c-1.5-4-2.2-8.4-2.2-13.3c0-4.9,0.7-9.3,2.2-13.3c1.5-4,3.6-7.4,6.3-10.2c2.7-2.8,6.1-5,10-6.5c3.9-1.5,8.3-2.3,13.1-2.3
			c2.4,0,4.6,0.2,6.7,0.5c2,0.3,3.9,0.8,5.7,1.4c1.8,0.6,3.4,1.4,4.9,2.4c1.5,0.9,3,2,4.4,3.2l-1.2,2c-0.3,0.4-0.6,0.7-1.1,0.7
			c-0.3,0-0.5-0.1-0.8-0.2c-0.4-0.2-1.1-0.6-1.9-1.2c-0.8-0.7-2-1.3-3.4-2.1c-1.4-0.7-3.2-1.4-5.4-1.9c-2.2-0.6-4.8-0.8-7.9-0.8
			c-4.1,0-7.8,0.7-11.1,2c-3.3,1.3-6.1,3.2-8.4,5.6s-4.1,5.4-5.4,8.9c-1.3,3.5-1.9,7.4-1.9,11.8c0,4.5,0.6,8.5,1.9,12
			c1.3,3.5,3.1,6.5,5.4,9s5.1,4.3,8.3,5.6C555.2,329,558.8,329.7,562.7,329.7z"/>
		<path class="st38" d="M642.1,269.6v3.8h-33.2v25.5h27.6v3.7h-27.6v26.3h33.2v3.8h-37.8v-63.1H642.1z"/>
		<path class="st38" d="M662.2,269.7c0.2,0.1,0.5,0.3,0.8,0.7l40.8,54.7c-0.1-0.9-0.1-1.8-0.1-2.6v-52.9h4v63.1h-2.2
			c-0.7,0-1.2-0.3-1.6-0.9l-41-54.8c0.1,0.9,0.1,1.7,0.1,2.5v53.1h-4v-63.1h2.2C661.6,269.6,661.9,269.6,662.2,269.7z"/>
		<path class="st38" d="M777,332.7h-4.6v-30.2h-39.5v30.2h-4.6v-63.1h4.6V299h39.5v-29.4h4.6V332.7z"/>
		<path class="st38" d="M845.2,332.7h-3.5c-0.4,0-0.8-0.1-1-0.3c-0.3-0.2-0.5-0.5-0.6-0.9l-7.4-18.3h-31l-7.4,18.3
			c-0.1,0.3-0.3,0.6-0.6,0.8c-0.3,0.2-0.7,0.4-1.1,0.4H789l25.8-63.1h4.5L845.2,332.7z M803,309.8h28.3l-12.9-31.9
			c-0.2-0.5-0.4-1.1-0.6-1.7c-0.2-0.6-0.4-1.3-0.6-2c-0.2,0.7-0.4,1.4-0.6,2c-0.2,0.6-0.4,1.2-0.6,1.8L803,309.8z"/>
		<path class="st38" d="M863,304.1v28.5h-4.5v-63.1h16.1c7.3,0,12.7,1.4,16.3,4.2c3.6,2.8,5.4,6.9,5.4,12.4c0,2.4-0.4,4.6-1.2,6.6
			c-0.8,2-2,3.7-3.6,5.2s-3.4,2.7-5.6,3.7c-2.2,1-4.7,1.6-7.4,1.9c0.7,0.4,1.4,1,1.9,1.8l21.7,27.3h-4c-0.5,0-0.9-0.1-1.2-0.3
			s-0.7-0.5-1-0.9l-20.2-25.6c-0.5-0.7-1-1.1-1.6-1.4c-0.6-0.3-1.5-0.4-2.7-0.4H863z M863,300.8h11c2.8,0,5.3-0.3,7.5-1
			c2.2-0.7,4.1-1.6,5.6-2.9c1.5-1.2,2.7-2.7,3.5-4.5c0.8-1.8,1.2-3.7,1.2-5.9c0-4.5-1.5-7.8-4.4-10c-2.9-2.2-7.2-3.3-12.8-3.3H863
			V300.8z"/>
		<path class="st38" d="M921.6,332.7H917v-63.1h4.6V332.7z"/>
		<path class="st38" d="M991.5,332.7H988c-0.4,0-0.8-0.1-1-0.3c-0.3-0.2-0.5-0.5-0.6-0.9l-7.4-18.3h-31l-7.4,18.3
			c-0.1,0.3-0.3,0.6-0.6,0.8c-0.3,0.2-0.7,0.4-1.1,0.4h-3.5l25.8-63.1h4.5L991.5,332.7z M949.3,309.8h28.3l-12.9-31.9
			c-0.2-0.5-0.4-1.1-0.6-1.7c-0.2-0.6-0.4-1.3-0.6-2c-0.2,0.7-0.4,1.4-0.6,2c-0.2,0.6-0.4,1.2-0.6,1.8L949.3,309.8z"/>
	</g>
</g>
<g id="Logo_4">
</g>
</svg>
