<svg xmlns="http://www.w3.org/2000/svg" viewBox="0 0 405 544"><style>.st0{fill:none}.st1{fill:#ffb25a}.st5{fill:#e67b53}.st6{fill:#e38150}.st8{fill:#ffb977}.st9{fill:#df7650}.st11{fill:#ffbc78}.st12{fill:#ffc47c}.st13{fill:#b4343f}.st14{fill:#ef9e42}.st16{fill:#ffc87c}.st17{fill:#b93b44}.st20{fill:#e78052}.st22{fill:#e97e55}.st23{fill:#ffc879}.st24{fill:#ca5f4b}.st26{fill:#f8a93f}.st28{fill:#ffd080}.st30{fill:#b94046}.st31{fill:#fba168}.st32{fill:#f18c5a}.st33{fill:#ffc16c}.st34{fill:#f18b5a}.st35{fill:#ffb765}.st36{fill:#c94449}.st37{fill:#f38b3f}.st38{fill:#f8975f}.st39{fill:#ffbd6e}.st40{fill:#d6534f}.st41{fill:#f9974a}.st42{fill:#ffa46b}.st43{fill:#ffc172}.st44{fill:#e46e54}.st45{fill:#ffac5b}.st46{fill:#d0604d}.st47{fill:#ffb461}.st48{fill:#f0d07c}.st49{fill:#de784d}.st50{fill:#ffb574}</style><g id="Logo_3"><g id="Logo_1_"><path class="st0" d="M202.6 37.8v-.1M204.9 36.9l-2.3 13.6v.8l2.5-14.2 26.4-9.7-.1-.1-26.4 9.6v.1zM202.6 177.8v.1l47.3-17.3v-.1zM293.9 290.9v-.9l-6.6 37.7zM293.9 284.4l-50.5 18.4 50.5-18.3zM204.9 36.9l-2.3.8v.1zM250 160.5l43.9-16zM165.4 261.2l-8.1 46.6 8.2-46.5v-.1l-31.6-26.5 31.5 26.5zM107.3 212.5l-4.7 1.7 4.7-1.7zM102.6 365.7l25.4 4.5-25.4-4.5zM152.3 335.9L102.6 354v.1zM178.9 186.6h-.1.1l2.7-1v-.1l-2.9 1-11.1 63.2zM314.9 277l23.7-8.7h-.1l-23.6 8.6zM81.1 361.9zM81.1 362v-.1l-22.7 8.3h.3zM81.4 362h.2zM81.6 361.7l-.4.2.4-.2zM81.1 361.9l-53.8-9.5 53.8 9.5zM81.3 361.9h-.1.1zM31 268.2l-.1.1-2.4 13.7z"/><path class="st1" d="M81.1 361.9l-53.8-45.1v35.6l53.8 9.5zM81.1 361.9z"/><path fill="#ffb040" d="M30.9 268.3l-3.6 3.2v17.1l1.2-6.6z"/><path fill="#ffc375" d="M250.6 370.2h43.3v-1.1l-12.2-10.2z"/><path fill="#ffbf74" d="M222.7 370.2h27.9l31.1-11.3 5.6-31.2 6.6-37.7v-4.7z"/><path class="st5" d="M249.9 160.5zM249.9 160.5l-47.3-39.7v31.3l47.3 8.4zM181.6 148.4v-33l-22.9 8.3-16.2 17.8z"/><path class="st6" d="M202.6 39.8v10.7l2.3-13.6zM181.6 98.7l-22.9 25 22.9-8.3z"/><path fill="#ffbd71" d="M223.7 310l-10.6 60.2h9.6l71.2-84.9v-.8l-50.5 18.3-19.7 7.2z"/><path class="st8" d="M223.6 310l-21-17.7v70.6l2.6 7.3h7.9l10.6-60.2h-.1zM181.6 274.7l-16-13.4 16 44z"/><path class="st9" d="M204.9 36.9l-2.3.9v2l2.3-2.9zM204.9 36.9l-2.3 2.9 2.3-2.9z"/><path fill="#e79244" d="M250 160.5h.2v.1l43.7 7.7v-23.8l-43.9 16z"/><path class="st11" d="M202.6 370.2h2.6l-2.6-7.2zM165.6 261.3h-.1l-8.2 46.5-4.9 27.9.2.1-.2.1v.1l29.2 24.5v-55.2z"/><path class="st11" d="M205.2 370.2l-2.6-7.3v.1zM181.6 305.3l-16-44z"/><path class="st12" d="M181.6 360.5L152.4 336l-.1-.1-49.7 18.2v11.6l25.4 4.5h53.6zM81.4 361.9v.1h.2v-.3l-.4.2h.1z"/><path class="st13" d="M205.1 36.7l16.1-19.1-11-10.4-5.2 29.5zM205.1 36.8h-.1v.1z"/><path class="st14" d="M250.1 160.5h-.1v.1zM250.1 160.6l43.8 36.9v-29.2l-43.7-7.7z"/><path fill="#f5a94e" d="M314.9 246.8v13.5l6.4-7.7z"/><path class="st16" d="M102.6 370.2H128l-25.4-4.5zM81.2 361.9h.1zM81.6 362h-.2l.2.3z"/><path class="st17" d="M205.2 36.8h-.1l-.1.1 26.4-9.6-10.2-9.7-16.1 19.1zM205 36.9l.1-.1zM205.1 36.7l16.1-19.1-16.1 19.1z"/><path fill="#faae4c" d="M338.5 268.3l-17.2-15.7-6.4 7.7v16.6z"/><path fill="#ee8e3e" d="M107.3 212.3l.1.1 7.1-40.3-11.9 13v29.1l4.7-1.7z"/><path class="st20" d="M107.6 212.4v.1l26.3 22.2 31.6 26.5-37.7-103.6-13.3 14.5-7.1 40.3h.1zM114.5 172.1l-7.1 40.3z"/><path fill="#ffba63" d="M58.4 370.2l22.7-8.3-53.8-9.5v17.8z"/><path class="st20" d="M165.5 261.2l2.1-11.5 11.1-63.2-43.7-36.8-7.2 7.9z"/><path class="st22" d="M249.9 160.5l-47.3-8.4v25.7zM178.7 186.5l2.9-1v-37.1l-39.1-6.9-7.5 8.2z"/><path class="st23" d="M81.2 362l-.1-.1v.1zM81.1 361.9zM81.2 361.9h-.1.1zM81.2 361.9h-.1.1zM81.6 362.3l-.3-.2-1.4 8.1h1.7zM81.1 361.9zM81.2 361.9h-.1.1z"/><path class="st23" d="M81.2 361.9h-.1l.1.1v-.1zM81.6 362.3l-.2-.3-.1.1.3.2zM81.1 361.9z"/><path class="st24" d="M205 36.9h-.1l.1.1v-.1zM202.6 34.6l2.4 2 5.2-29.4-7.6-7.2zM204.9 36.9h.1v-.1l-.1.1zM204.9 36.9zM204.9 36.9zM204.9 36.9zM205 36.9v-.1.1zM205 36.9z"/><path class="st24" d="M205 36.7l5.2-29.5-5.2 29.4zM205 36.9zM205 36.9h-.1zM205 36.9z"/><path fill="#ffb049" d="M293.9 282.9v-68.4l-57 20.7z"/><path class="st26" d="M293.9 214.4v-16.9l-43.8-36.8-13.2 74.5zM249.9 160.5h.1-.1zM249.9 160.6h.1l-.1-.1zM249.9 160.5zM250 160.5h-.1z"/><path class="st26" d="M250 160.6v-.1h-.1zM250.1 160.7l43.8 36.8-43.8-36.9zM249.9 160.5zM236.9 235.2l57-20.7v-.1l-57 20.8z"/><path fill="#fad17e" d="M369.2 346.3v-19.2l-16.1 5.8z"/><path class="st28" d="M369.2 327v-30.8l-8.3-7.5-7.8 44.1zM369.2 327v.1M353.1 332.8v.1l16.1-5.8v-.1z"/><path fill="#cf5b4d" d="M293.9 111.4v-25l-9-8.6-21.7 7.9z"/><path class="st30" d="M284.8 77.8l-17.4-16.4-4.3 24.3z"/><path class="st30" d="M263.1 85.7h.1l21.7-7.9h-.1l-21.7 7.9z"/><path class="st31" d="M152.3 335.9zM165.4 261.2l-62.8 22.9v9.9l49.8 41.7 4.9-27.9zM165.4 261.2zM152.4 336v-.1h-.1zM157.3 307.8l-4.9 27.9zM152.4 336l-.1-.1.1.1z"/><path class="st32" d="M165.4 261.2zM165.4 261.2l-31.5-26.5-26.3-22.1-5 27.9v43.6zM107.4 212.5h-.1.1zM107.4 212.4l-.1-.1v.2h.1z"/><path class="st32" d="M107.6 212.5v.1l26.3 22.1zM107.4 212.4v.1l.1-.1zM107.4 212.4v.1zM165.4 261.2l-62.8 22.9 62.8-22.9z"/><path class="st33" d="M81.1 362l-22.4 8.2h21zM81.3 361.9l.1.1zM81.4 361.9h-.1l.1.1zM81.3 361.9h-.1l.2.1zM79.9 370.2l1.4-8.1-.1-.1h-.1l-1.4 8.2z"/><path class="st33" d="M81.4 362l-.2-.1v.1l.1.1z"/><path class="st34" d="M202.6 206.4l34.2 28.8 13.1-74.6-47.3 17.3zM181.6 188.8v-3.2l-2.7 1zM178.8 186.6h.1zM250.2 160.5h-.1l.1.1z"/><path class="st34" d="M250.1 160.6h.1l-.1-.1-.1.1zM249.9 160.6l-13.1 74.6h.1l13.2-74.5-.1-.1z"/><path class="st34" d="M250 160.6l.1.1v-.1h-.1zM236.9 235.2h-.1.1zM236.9 235.2z"/><path class="st35" d="M353 332.9l7.8-44.4-22.2-20.2-23.7 8.7v23.8z"/><path class="st35" d="M353 332.9h.1v-.1l7.8-44.1-.1-.2zM353.1 332.9v-.1.1zM353 332.9z"/><path class="st36" d="M263.1 85.7l4.2-24.4-35.8-33.9-26.4 9.7zM263.1 85.7l4.3-24.3-.1-.1zM263.1 85.7zM263.1 85.7z"/><path class="st37" d="M107.3 212.5l-4.7 1.7v25.2zM81.6 222.1l-31 28.3 31 26.1zM107.5 212.4l.1.1v-.1zM107.6 212.6l-.2-.1h-.1l-4.7 26.9v1.1z"/><path class="st37" d="M107.5 212.4l-.1.1.2.1v-.1z"/><path class="st38" d="M236.8 235.3l-34.2-28.8v41.2zM167.6 249.7l-2.1 11.5 16.1-5.9v-66.4l-2.7-2.3zM178.9 186.6zM165.5 261.2zM165.5 261.2zM165.5 261.2l2.1-11.5-2.1 11.5z"/><path class="st38" d="M202.6 206.5l34.2 28.8v-.1l-34.2-28.8zM178.9 186.6l2.7 2.3v-.1l-2.7-2.2zM236.8 235.2zM236.8 235.2zM236.8 235.2zM236.8 235.2h.1-.1z"/><path class="st39" d="M281.8 358.8l12.1-4.4v-63.5l-6.6 36.8zM353 332.9l-38.1-32v45.9zM287.3 327.7l-5.6 31.2.1-.1z"/><path class="st39" d="M314.9 300.9l38.1 32-38.1-32.1zM353 332.9zM353 332.9zM353 332.9zM353 332.9z"/><path class="st40" d="M263 85.8l-57.9-48.7-2.5 14.2v56.5zM263.1 85.7h-.1.1l-58-48.6L263 85.8zM263 85.7h.1zM263.1 85.7zM263.1 85.7zM263.1 85.7z"/><path class="st41" d="M81.6 291.7v-15.2l-31.1-26.1L31 268.2 28.5 282l-1.2 6.8v22.7z"/><path class="st41" d="M28.5 282l-1.2 6.6v.2zM50.6 250.4h-.1l31.1 26.1z"/><path class="st42" d="M223.6 310l13.2-74.7-34.2 12.4v44.6zM165.5 261.2v.1-.1zM181.6 274.7v-19.3l-16.1 5.8zM223.7 310zM202.6 292.3l21 17.7-21-17.7zM165.6 261.3l16 13.4-16.1-13.5z"/><path class="st42" d="M165.5 261.2v.1h.1zM165.6 261.3l-.1-.1.1.1zM165.5 261.2zM165.5 261.2zM236.9 235.2zM202.6 247.7l34.2-12.4-34.2 12.4zM165.5 261.2l16.1-5.8v-.1l-16.1 5.9zM165.5 261.2zM165.5 261.2zM236.8 235.3zM236.8 235.3zM236.8 235.2v.1zM236.8 235.3v-.1.1z"/><path class="st43" d="M281.8 358.8l12.1 10.2v-14.5l-12.1 4.3zM314.9 370.2h31.5l6.6-37.3-38.1 13.9z"/><path class="st43" d="M281.7 358.9l12.2 10.2v-.1l-12.1-10.2zM281.8 358.8l-.1.1.1-.1zM353.1 332.9z"/><path class="st43" d="M281.8 358.8l12.1-4.3v-.1zM353 332.9l-38.1 13.9 38.1-13.9zM281.8 358.8l-.1.1zM353 332.9zM353 332.9zM353 332.9zM353 332.9z"/><path class="st44" d="M263.1 85.8l-60.5 22v12.9l47.3 39.8z"/><path class="st44" d="M249.9 160.5l-47.3-39.8v.1l47.3 39.7zM249.9 160.5zM263.2 85.7h-.1.1zM263.1 85.8h-.1l-60.4 22zM263.1 85.8zM263.1 85.7l-.1.1h.1zM263.1 85.8zM263.1 85.8v-.1.1z"/><path class="st45" d="M81.6 291.8l-54.3 19.7v5.1l53.8 45.3.5-3.1z"/><path class="st45" d="M81.1 361.9l-53.8-45.3v.2l53.8 45.1zM81.1 361.9zM81.1 361.9zM27.3 311.5l54.3-19.7v-.1z"/><path class="st46" d="M202.6 37.7v-2.8M204.9 36.9l-2.3-2v2.8zM205.1 36.8v-.1h-.1v.1zM205.2 36.8l-.1-.1v.1zM205.1 36.8v-.1.1zM202.6 34.9v-.3"/><path class="st46" d="M205 36.8v-.2l-2.4-2v.3l2.3 2zM205 36.8v-.2.2z"/><path class="st47" d="M223.7 310l19.7-7.2 50.5-18.4v-1.2l-57-47.9zM223.7 310zM243.4 302.8l-19.7 7.2zM223.6 310h.1-.1zM236.9 235.2v.1l57 47.9v-.3l-57-47.7zM236.9 235.2zM236.9 235.2zM236.9 235.2zM236.9 235.2zM236.9 235.3v-.1.1zM236.9 235.2zM236.9 235.2h-.1zM236.9 235.2h-.1.1z"/><path class="st47" d="M236.9 235.3h-.1L223.6 310h.1l13.2-74.7zM223.7 310zM223.7 310h-.1zM236.9 235.3zM236.9 235.2zM236.9 235.2zM236.9 235.3h-.1zM236.8 235.3zM236.9 235.3zM236.9 235.3v-.1zM236.9 235.3v-.1zM236.9 235.3v-.1zM236.9 235.3h-.1zM236.9 235.2h-.1v.1h.1zM236.9 235.2z"/><path class="st48" d="M369.2 370.2v-23.7L353.1 333l-6.6 37.2zM353.1 332.9v.1l16.1 13.5v-.2l-16.1-13.4zM353.1 332.9zM353.1 332.9zM353 332.9h.1zM353 332.9h.1zM353.1 332.9zM353.1 332.9zM353 332.9zM353 332.9h.1-.1z"/><path class="st48" d="M353.1 332.9v.1l-.1-.1-6.6 37.3h.1l6.6-37.2v-.1zM353.1 333v-.1zM353.1 332.9zM353.1 332.9z"/><path class="st48" d="M353.1 333v-.1h-.1zM353 332.9zM353.1 332.9zM353.1 332.9zM353.1 332.9zM353.1 332.9zM353 332.9h.1zM353 332.9h.1-.1zM353.1 332.9h-.1.1z"/><path class="st49" d="M263.1 85.8l-13.2 74.6.1.1 43.9-16v-32.8zM249.9 160.5zM249.9 160.5zM249.9 160.5h.1l-.1-.1zM249.9 160.5zM249.9 160.5z"/><path class="st49" d="M263.1 85.7v.1l30.8 25.9v-.3l-30.7-25.7zM263.1 85.7zM263.2 85.7h-.1zM263.1 85.7zM263.1 85.7zM263.1 85.7zM263.1 85.7zM263.1 85.7zM263.1 85.8l-13.2 74.7v-.1l13.2-74.6zM249.9 160.5zM249.9 160.5v-.1zM249.9 160.5zM263.1 85.7v.1-.1zM263.1 85.7h.1-.1zM263.1 85.8zM263.1 85.8zM263.1 85.8zM263.1 85.8v-.1.1zM263.1 85.8zM263.1 85.8v-.1zM263.1 85.8zM263.1 85.8v-.1.1zM263.1 85.7v.1-.1z"/><path class="st50" d="M102.6 294.1V354l49.7-18.1zM81.1 361.9zM81.6 361.7V359l-.5 2.8.1.1zM81.1 361.9zM152.4 335.7v.2l.2-.1zM81.1 361.9z"/><path class="st50" d="M81.2 361.9l-.1-.1v.1zM81.1 361.9zM152.3 335.9l.1-.2-49.8-41.7v.1l49.7 41.8z"/><path class="st50" d="M152.4 335.7l-.1.2h.1zM81.1 361.8l.5-2.8v-.2l-.5 3.1zM81.1 361.9zM81.1 361.9v-.1.1zM81.1 361.9z"/></g><g id="Type_3_"><linearGradient id="SVGID_1_" gradientUnits="userSpaceOnUse" y1="447.252" x2="403.609" y2="447.252"><stop offset="0" stop-color="#f8975f"/><stop offset="1" stop-color="#c94449"/></linearGradient><path d="M37.7 430.1c-4.3.3-8 1.9-11.1 5-3.4 3.4-5.1 7.4-5.1 12.2 0 4.7 1.7 8.8 5.1 12.2 3.1 3.1 6.8 4.8 11.1 5.1v21.6c-10.3-.3-19.1-4.1-26.3-11.4C3.8 467.2 0 458 0 447.3c0-10.8 3.8-19.9 11.4-27.5 7.3-7.3 16.1-11.1 26.3-11.4v21.7zm2.2 56v-21.6c4.3-.3 8.1-2 11.1-5.1l15.3 15.3c-7.3 7.3-16.1 11.1-26.4 11.4zm11.1-51c-3.1-3.1-6.8-4.7-11.1-5v-21.6c10.3.3 19.1 4.1 26.4 11.4L51 435.1zm43.4 51H72.8v-77.7h21.6v77.7zm45.3 0h-25l-11.5-19.4h-6.6v-21.6h14c2.1 0 3.9-.7 5.3-2.2 1.5-1.4 2.2-3.2 2.2-5.3 0-2.1-.7-3.8-2.2-5.3-1.4-1.5-3.2-2.2-5.3-2.2h-14v-21.6h14c8 0 14.9 2.8 20.6 8.5 5.7 5.7 8.5 12.5 8.5 20.6 0 5.2-1.3 10-3.9 14.5-2.5 4.3-5.9 7.8-10.2 10.4l14.1 23.6zm44.2-56.1c-4.5.3-8.3 2.1-11.5 5.4-3.2 3.3-4.7 7.3-4.7 11.8s1.6 8.5 4.7 11.8c3.1 3.3 6.9 5.1 11.5 5.4V486c-10.5-.3-19.4-4.2-26.7-11.7-7.4-7.5-11-16.6-11-27.1s3.7-19.5 11-27.1c7.4-7.5 16.3-11.4 26.7-11.7V430zm28.9 44.4c-7.4 7.5-16.3 11.4-26.7 11.7v-21.6c4.5-.3 8.3-2 11.5-5.4 3.2-3.3 4.7-7.3 4.7-11.8s-1.6-8.5-4.7-11.8c-3.1-3.3-6.9-5.1-11.5-5.4v-21.6c10.5.3 19.4 4.2 26.7 11.7 7.4 7.6 11 16.6 11 27.1.1 10.5-3.6 19.5-11 27.1zm39.1 11.7h-21.6v-66.3l21.6 30.9v35.4zm60.5 0h-21.6v-35.4l21.6-30.9v66.3zm0-70l-26.7 38.2-14.3 20.4-9.9-14.2-31.1-44.4v-7.7h20.9l20.1 28.6 20-28.6h21v7.7zm68.1 70l-4.1-10.8h-27.8l8.5-21.6h11.1l-6.6-17.5-2.6 6.8-16.9 43.1H319l30.4-77.7h24.8l29.6 77.7h-23.3z" fill="url(#SVGID_1_)"/><linearGradient id="SVGID_2_" gradientUnits="userSpaceOnUse" x1="39.872" y1="472.783" x2="66.272" y2="472.783"><stop offset="0" stop-color="#f8975f"/><stop offset="1" stop-color="#c94449"/></linearGradient><path d="M39.9 464.5v21.6c10.3-.3 19.1-4.1 26.4-11.4L51 459.5c-3.1 3.1-6.8 4.7-11.1 5z" fill="url(#SVGID_2_)"/><linearGradient id="SVGID_3_" gradientUnits="userSpaceOnUse" x1="-5.114" y1="472.783" x2="407.441" y2="472.783"><stop offset="0" stop-color="#f8975f"/><stop offset="1" stop-color="#c94449"/></linearGradient><path d="M39.9 464.5v21.6c10.3-.3 19.1-4.1 26.4-11.4L51 459.5c-3.1 3.1-6.8 4.7-11.1 5z" fill="url(#SVGID_3_)"/><linearGradient id="SVGID_4_" gradientUnits="userSpaceOnUse" x1="39.872" y1="421.775" x2="66.272" y2="421.775"><stop offset="0" stop-color="#f8975f"/><stop offset="1" stop-color="#c94449"/></linearGradient><path d="M39.9 430.1c4.3.3 8.1 1.9 11.1 5l15.3-15.3c-7.3-7.3-16.1-11.1-26.4-11.4v21.7z" fill="url(#SVGID_4_)"/><linearGradient id="SVGID_5_" gradientUnits="userSpaceOnUse" x1="-5.114" y1="421.775" x2="407.441" y2="421.775"><stop offset="0" stop-color="#f8975f"/><stop offset="1" stop-color="#c94449"/></linearGradient><path d="M39.9 430.1c4.3.3 8.1 1.9 11.1 5l15.3-15.3c-7.3-7.3-16.1-11.1-26.4-11.4v21.7z" fill="url(#SVGID_5_)"/><linearGradient id="SVGID_6_" gradientUnits="userSpaceOnUse" y1="447.279" x2="37.699" y2="447.279"><stop offset="0" stop-color="#f8975f"/><stop offset="1" stop-color="#c94449"/></linearGradient><path d="M0 447.3c0 10.7 3.8 19.9 11.4 27.4 7.3 7.3 16.1 11.1 26.3 11.4v-21.6c-4.3-.3-8-2-11.1-5.1-3.4-3.4-5.1-7.4-5.1-12.2 0-4.8 1.7-8.9 5.1-12.2 3.1-3.1 6.8-4.7 11.1-5v-21.6c-10.3.3-19.1 4.1-26.3 11.4C3.8 427.4 0 436.6 0 447.3z" fill="url(#SVGID_6_)"/><linearGradient id="SVGID_7_" gradientUnits="userSpaceOnUse" x1="-5.114" y1="447.279" x2="407.441" y2="447.279"><stop offset="0" stop-color="#f8975f"/><stop offset="1" stop-color="#c94449"/></linearGradient><path d="M0 447.3c0 10.7 3.8 19.9 11.4 27.4 7.3 7.3 16.1 11.1 26.3 11.4v-21.6c-4.3-.3-8-2-11.1-5.1-3.4-3.4-5.1-7.4-5.1-12.2 0-4.8 1.7-8.9 5.1-12.2 3.1-3.1 6.8-4.7 11.1-5v-21.6c-10.3.3-19.1 4.1-26.3 11.4C3.8 427.4 0 436.6 0 447.3z" fill="url(#SVGID_7_)"/><linearGradient id="SVGID_8_" gradientUnits="userSpaceOnUse" x1="96.529" y1="447.252" x2="139.661" y2="447.252"><stop offset="0" stop-color="#f8975f"/><stop offset="1" stop-color="#c94449"/></linearGradient><path d="M135.8 452c2.6-4.5 3.9-9.3 3.9-14.5 0-8-2.8-14.9-8.5-20.6-5.7-5.7-12.5-8.5-20.6-8.5h-14V430h14c2.1 0 3.9.7 5.3 2.2 1.5 1.5 2.2 3.3 2.2 5.3 0 2.1-.7 3.9-2.2 5.3-1.4 1.5-3.2 2.2-5.3 2.2h-14v21.6h6.6l11.5 19.4h25l-14-23.6c4.2-2.5 7.6-6 10.1-10.4z" fill="url(#SVGID_8_)"/><linearGradient id="SVGID_9_" gradientUnits="userSpaceOnUse" x1="-5.114" y1="447.252" x2="407.441" y2="447.252"><stop offset="0" stop-color="#f8975f"/><stop offset="1" stop-color="#c94449"/></linearGradient><path d="M135.8 452c2.6-4.5 3.9-9.3 3.9-14.5 0-8-2.8-14.9-8.5-20.6-5.7-5.7-12.5-8.5-20.6-8.5h-14V430h14c2.1 0 3.9.7 5.3 2.2 1.5 1.5 2.2 3.3 2.2 5.3 0 2.1-.7 3.9-2.2 5.3-1.4 1.5-3.2 2.2-5.3 2.2h-14v21.6h6.6l11.5 19.4h25l-14-23.6c4.2-2.5 7.6-6 10.1-10.4z" fill="url(#SVGID_9_)"/><linearGradient id="SVGID_10_" gradientUnits="userSpaceOnUse" x1="72.791" y1="447.252" x2="94.357" y2="447.252"><stop offset="0" stop-color="#f8975f"/><stop offset="1" stop-color="#c94449"/></linearGradient><path fill="url(#SVGID_10_)" d="M72.8 408.4h21.6v77.7H72.8z"/><linearGradient id="SVGID_11_" gradientUnits="userSpaceOnUse" x1="-5.114" y1="447.252" x2="407.441" y2="447.252"><stop offset="0" stop-color="#f8975f"/><stop offset="1" stop-color="#c94449"/></linearGradient><path fill="url(#SVGID_11_)" d="M72.8 408.4h21.6v77.7H72.8z"/><linearGradient id="SVGID_12_" gradientUnits="userSpaceOnUse" x1="146.179" y1="447.252" x2="183.933" y2="447.252"><stop offset="0" stop-color="#f8975f"/><stop offset="1" stop-color="#c94449"/></linearGradient><path d="M146.2 447.3c0 10.5 3.7 19.6 11 27.1 7.4 7.5 16.3 11.4 26.7 11.7v-21.6c-4.5-.3-8.3-2-11.5-5.4-3.2-3.3-4.7-7.3-4.7-11.8s1.6-8.5 4.7-11.8c3.1-3.3 6.9-5.1 11.5-5.4v-21.6c-10.5.3-19.4 4.2-26.7 11.7-7.3 7.5-11 16.5-11 27.1z" fill="url(#SVGID_12_)"/><linearGradient id="SVGID_13_" gradientUnits="userSpaceOnUse" x1="-5.114" y1="447.252" x2="407.441" y2="447.252"><stop offset="0" stop-color="#f8975f"/><stop offset="1" stop-color="#c94449"/></linearGradient><path d="M146.2 447.3c0 10.5 3.7 19.6 11 27.1 7.4 7.5 16.3 11.4 26.7 11.7v-21.6c-4.5-.3-8.3-2-11.5-5.4-3.2-3.3-4.7-7.3-4.7-11.8s1.6-8.5 4.7-11.8c3.1-3.3 6.9-5.1 11.5-5.4v-21.6c-10.5.3-19.4 4.2-26.7 11.7-7.3 7.5-11 16.5-11 27.1z" fill="url(#SVGID_13_)"/><linearGradient id="SVGID_14_" gradientUnits="userSpaceOnUse" x1="186.106" y1="447.252" x2="223.859" y2="447.252"><stop offset="0" stop-color="#f8975f"/><stop offset="1" stop-color="#c94449"/></linearGradient><path d="M186.1 408.4V430c4.5.3 8.3 2.1 11.5 5.4 3.2 3.3 4.7 7.3 4.7 11.8s-1.6 8.5-4.7 11.8c-3.1 3.3-6.9 5.1-11.5 5.4V486c10.5-.3 19.4-4.2 26.7-11.7 7.4-7.5 11-16.6 11-27.1s-3.7-19.5-11-27.1c-7.3-7.5-16.2-11.4-26.7-11.7z" fill="url(#SVGID_14_)"/><linearGradient id="SVGID_15_" gradientUnits="userSpaceOnUse" x1="-5.114" y1="447.252" x2="407.441" y2="447.252"><stop offset="0" stop-color="#f8975f"/><stop offset="1" stop-color="#c94449"/></linearGradient><path d="M186.1 408.4V430c4.5.3 8.3 2.1 11.5 5.4 3.2 3.3 4.7 7.3 4.7 11.8s-1.6 8.5-4.7 11.8c-3.1 3.3-6.9 5.1-11.5 5.4V486c10.5-.3 19.4-4.2 26.7-11.7 7.4-7.5 11-16.6 11-27.1s-3.7-19.5-11-27.1c-7.3-7.5-16.2-11.4-26.7-11.7z" fill="url(#SVGID_15_)"/><linearGradient id="SVGID_16_" gradientUnits="userSpaceOnUse" x1="290.783" y1="452.983" x2="312.403" y2="452.983"><stop offset="0" stop-color="#f8975f"/><stop offset="1" stop-color="#c94449"/></linearGradient><path fill="url(#SVGID_16_)" d="M290.8 486.1h21.6v-66.2l-21.6 30.8z"/><linearGradient id="SVGID_17_" gradientUnits="userSpaceOnUse" x1="-5.114" y1="452.983" x2="407.441" y2="452.983"><stop offset="0" stop-color="#f8975f"/><stop offset="1" stop-color="#c94449"/></linearGradient><path fill="url(#SVGID_17_)" d="M290.8 486.1h21.6v-66.2l-21.6 30.8z"/><linearGradient id="SVGID_18_" gradientUnits="userSpaceOnUse" x1="230.378" y1="452.956" x2="251.943" y2="452.956"><stop offset="0" stop-color="#f8975f"/><stop offset="1" stop-color="#c94449"/></linearGradient><path fill="url(#SVGID_18_)" d="M230.4 486.1h21.5v-35.4l-21.5-30.9z"/><linearGradient id="SVGID_19_" gradientUnits="userSpaceOnUse" x1="-5.114" y1="452.956" x2="407.441" y2="452.956"><stop offset="0" stop-color="#f8975f"/><stop offset="1" stop-color="#c94449"/></linearGradient><path fill="url(#SVGID_19_)" d="M230.4 486.1h21.5v-35.4l-21.5-30.9z"/><linearGradient id="SVGID_20_" gradientUnits="userSpaceOnUse" x1="230.378" y1="441.548" x2="312.403" y2="441.548"><stop offset="0" stop-color="#f8975f"/><stop offset="1" stop-color="#c94449"/></linearGradient><path fill="url(#SVGID_20_)" d="M271.4 437l-20.1-28.6h-20.9v7.7l31 44.4 10 14.2 14.3-20.4 26.7-38.2v-7.7h-21z"/><linearGradient id="SVGID_21_" gradientUnits="userSpaceOnUse" x1="-5.114" y1="441.548" x2="407.441" y2="441.548"><stop offset="0" stop-color="#f8975f"/><stop offset="1" stop-color="#c94449"/></linearGradient><path fill="url(#SVGID_21_)" d="M271.4 437l-20.1-28.6h-20.9v7.7l31 44.4 10 14.2 14.3-20.4 26.7-38.2v-7.7h-21z"/><linearGradient id="SVGID_22_" gradientUnits="userSpaceOnUse" x1="318.922" y1="447.252" x2="403.609" y2="447.252"><stop offset="0" stop-color="#f8975f"/><stop offset="1" stop-color="#c94449"/></linearGradient><path fill="url(#SVGID_22_)" d="M349.3 408.4l-30.4 77.7h23.2L359 443l2.6-6.8 6.6 17.5h-11.1l-8.5 21.6h27.8l4.1 10.8h23.1l-29.5-77.7z"/><linearGradient id="SVGID_23_" gradientUnits="userSpaceOnUse" x1="-5.114" y1="447.252" x2="407.441" y2="447.252"><stop offset="0" stop-color="#f8975f"/><stop offset="1" stop-color="#c94449"/></linearGradient><path fill="url(#SVGID_23_)" d="M349.3 408.4l-30.4 77.7h23.2L359 443l2.6-6.8 6.6 17.5h-11.1l-8.5 21.6h27.8l4.1 10.8h23.1l-29.5-77.7z"/></g><text transform="translate(.45 543.22)" class="st38" letter-spacing="1" font-size="61.101" font-family="Lato-Light">ENGENHARIA</text></g></svg>